<svg xmlns="http://www.w3.org/2000/svg" xmlns:xlink="http://www.w3.org/1999/xlink" style="margin:auto;background:#ffffff;display:block;z-index:1;position:relative" width="1366" height="661" preserveAspectRatio="xMidYMid" viewBox="0 0 1366 661">
<g transform="translate(683,330.5) scale(1,1) translate(-683,-330.5)"><path id="path0" d="M 1274.2231040331321 196.02099300162183
c 0 29.055719518387143 -7.109378180030896 8.34579177655801 -15.455169956588906 8.34579177655801
S 1243.3127641199544 225.07671252000898 1243.3127641199544 196.02099300162183
s 7.109378180030896 -8.34579177655801 15.455169956588906 -8.34579177655801
S 1274.2231040331321 166.96527348323468 1274.2231040331321 196.02099300162183
z" fill="none" stroke="none"></path>
<circle cx="0" cy="0" r="9.684893552049207" fill="#e0ff77" opacity="0.9">
  <animateMotion begin="-2.171877567518612s" dur="10.16s" repeatCount="indefinite">
    <mpath xlink:href="#path0"></mpath>
  </animateMotion>
</circle><path id="path1" d="M 590.4273446609564 224.44721760360736
c 0 30.696392973216486 -7.510819557276374 8.817049045498353 -16.32786860277473 8.817049045498353
S 557.7716074554069 255.14361057682385 557.7716074554069 224.44721760360736
s 7.510819557276374 -8.817049045498353 16.32786860277473 -8.817049045498353
S 590.4273446609564 193.75082463039087 590.4273446609564 224.44721760360736
z" fill="none" stroke="none"></path>
<circle cx="0" cy="0" r="7.432822316079932" fill="#e0ff77" opacity="0.9">
  <animateMotion begin="-8.349093003840702s" dur="10.16s" repeatCount="indefinite">
    <mpath xlink:href="#path1"></mpath>
  </animateMotion>
</circle><path id="path2" d="M 119.81621657833817 263.2419663677102
c 0 18.80196777447091 -4.600481476732243 5.4005652118161125 -10.001046688548357 5.4005652118161125
S 99.81412320124146 282.0439341421811 99.81412320124146 263.2419663677102
s 4.600481476732243 -5.4005652118161125 10.001046688548357 -5.4005652118161125
S 119.81621657833817 244.43999859323927 119.81621657833817 263.2419663677102
z" fill="none" stroke="none"></path>
<circle cx="0" cy="0" r="6.971385437099238" fill="#ff708e" opacity="0.9">
  <animateMotion begin="-9.344672604596104s" dur="10.16s" repeatCount="indefinite">
    <mpath xlink:href="#path2"></mpath>
  </animateMotion>
</circle><path id="path3" d="M 1137.4452031235735 361.11513049459535
c 0 21.332835394893962 -5.219736320027245 6.1275165495972015 -11.347252869624446 6.1275165495972015
S 1114.7506973843244 382.4479658894893 1114.7506973843244 361.11513049459535
s 5.219736320027245 -6.1275165495972015 11.347252869624446 -6.1275165495972015
S 1137.4452031235735 339.7822950997014 1137.4452031235735 361.11513049459535
z" fill="none" stroke="none"></path>
<circle cx="0" cy="0" r="6.843561648886255" fill="#de9dd6" opacity="0.9">
  <animateMotion begin="-5.012854306413517s" dur="10.16s" repeatCount="indefinite">
    <mpath xlink:href="#path3"></mpath>
  </animateMotion>
</circle><path id="path4" d="M 92.95060219926654 74.9996267988455
c 0 35.277789783012146 -8.631799627758289 10.132982171716254 -18.764781799474544 10.132982171716254
S 55.421038600317445 110.27741658185764 55.421038600317445 74.9996267988455
s 8.631799627758289 -10.132982171716254 18.764781799474544 -10.132982171716254
S 92.95060219926654 39.72183701583335 92.95060219926654 74.9996267988455
z" fill="none" stroke="none"></path>
<circle cx="0" cy="0" r="8.544286890705802" fill="#ff708e" opacity="0.9">
  <animateMotion begin="-7.694109869321375s" dur="10.16s" repeatCount="indefinite">
    <mpath xlink:href="#path4"></mpath>
  </animateMotion>
</circle><path id="path5" d="M 116.08490111056706 141.2805856044719
c 0 33.095073183363695 -8.09773067252516 9.506031659051274 -17.603762331576434 9.506031659051274
S 80.87737644741419 174.3756587878356 80.87737644741419 141.2805856044719
s 8.09773067252516 -9.506031659051274 17.603762331576434 -9.506031659051274
S 116.08490111056706 108.1855124211082 116.08490111056706 141.2805856044719
z" fill="none" stroke="none"></path>
<circle cx="0" cy="0" r="7.519523186487069" fill="#9df871" opacity="0.9">
  <animateMotion begin="-7.087178342338324s" dur="10.16s" repeatCount="indefinite">
    <mpath xlink:href="#path5"></mpath>
  </animateMotion>
</circle><path id="path6" d="M 1278.014236853391 550.8783747407034
c 0 22.42731251664618 -5.487533913647469 6.441887637760073 -11.929421551407541 6.441887637760073
S 1254.1553937505757 573.3056872573496 1254.1553937505757 550.8783747407034
s 5.487533913647469 -6.441887637760073 11.929421551407541 -6.441887637760073
S 1278.014236853391 528.4510622240572 1278.014236853391 550.8783747407034
z" fill="none" stroke="none"></path>
<circle cx="0" cy="0" r="10.927944752623963" fill="#e0ff77" opacity="0.9">
  <animateMotion begin="-7.417333777280915s" dur="10.16s" repeatCount="indefinite">
    <mpath xlink:href="#path6"></mpath>
  </animateMotion>
</circle><path id="path7" d="M 1192.229278840773 270.222672040756
c 0 27.76798555423223 -6.794294337737672 7.975910744300747 -14.77020508203842 7.975910744300747
S 1162.688868676696 297.9906575949882 1162.688868676696 270.222672040756
s 6.794294337737672 -7.975910744300747 14.77020508203842 -7.975910744300747
S 1192.229278840773 242.45468648652374 1192.229278840773 270.222672040756
z" fill="none" stroke="none"></path>
<circle cx="0" cy="0" r="8.317963003314368" fill="#e0ff77" opacity="0.9">
  <animateMotion begin="-0.4725398859276634s" dur="10.16s" repeatCount="indefinite">
    <mpath xlink:href="#path7"></mpath>
  </animateMotion>
</circle><path id="path8" d="M 1256.2695966716537 525.8190428886381
c 0 28.387813580158646 -6.945954386634561 8.153946453875356 -15.099900840509918 8.153946453875356
S 1226.069794990634 554.2068564687968 1226.069794990634 525.8190428886381
s 6.945954386634561 -8.153946453875356 15.099900840509918 -8.153946453875356
S 1256.2695966716537 497.4312293084795 1256.2695966716537 525.8190428886381
z" fill="none" stroke="none"></path>
<circle cx="0" cy="0" r="11.890558065368788" fill="#9df871" opacity="0.9">
  <animateMotion begin="-1.8604677802946639s" dur="10.16s" repeatCount="indefinite">
    <mpath xlink:href="#path8"></mpath>
  </animateMotion>
</circle><path id="path9" d="M 436.41219379611607 346.40042546747895
c 0 30.05722061623925 -7.354426320994709 8.63345698551553 -15.987883306510238 8.63345698551553
S 404.4364271830956 376.4576460837182 404.4364271830956 346.40042546747895
s 7.354426320994709 -8.63345698551553 15.987883306510238 -8.63345698551553
S 436.41219379611607 316.3432048512397 436.41219379611607 346.40042546747895
z" fill="none" stroke="none"></path>
<circle cx="0" cy="0" r="8.46422133751483" fill="#ff708e" opacity="0.9">
  <animateMotion begin="-8.458087306716635s" dur="10.16s" repeatCount="indefinite">
    <mpath xlink:href="#path9"></mpath>
  </animateMotion>
</circle><path id="path10" d="M 1162.418661006378 186.64380883905073
c 0 27.16775248906027 -6.647428800514747 7.803503374517312 -14.450932175032058 7.803503374517312
S 1133.516796656314 213.811561328111 1133.516796656314 186.64380883905073
s 6.647428800514747 -7.803503374517312 14.450932175032058 -7.803503374517312
S 1162.418661006378 159.47605634999047 1162.418661006378 186.64380883905073
z" fill="none" stroke="none"></path>
<circle cx="0" cy="0" r="10.647574782132148" fill="#ff708e" opacity="0.9">
  <animateMotion begin="-1.288710999886147s" dur="10.16s" repeatCount="indefinite">
    <mpath xlink:href="#path10"></mpath>
  </animateMotion>
</circle><path id="path11" d="M 171.24288872020676 530.0003438003295
c 0 22.62605261070464 -5.5361618090021985 6.498972558393887 -12.035134367396086 6.498972558393887
S 147.17261998541457 552.6263964110341 147.17261998541457 530.0003438003295
s 5.5361618090021985 -6.498972558393887 12.035134367396086 -6.498972558393887
S 171.24288872020676 507.37429118962484 171.24288872020676 530.0003438003295
z" fill="none" stroke="none"></path>
<circle cx="0" cy="0" r="12.18529293846692" fill="#de9dd6" opacity="0.9">
  <animateMotion begin="-8.92247279424954s" dur="10.16s" repeatCount="indefinite">
    <mpath xlink:href="#path11"></mpath>
  </animateMotion>
</circle><path id="path12" d="M 62.63673289838679 160.3594105839466
c 0 23.471167796506492 -5.742945311911162 6.741718409634843 -12.484663721546006 6.741718409634843
S 37.66740545529478 183.83057838045312 37.66740545529478 160.3594105839466
s 5.742945311911162 -6.741718409634843 12.484663721546006 -6.741718409634843
S 62.63673289838679 136.8882427874401 62.63673289838679 160.3594105839466
z" fill="none" stroke="none"></path>
<circle cx="0" cy="0" r="9.08422089792132" fill="#e0ff77" opacity="0.9">
  <animateMotion begin="-2.7660090888804216s" dur="10.16s" repeatCount="indefinite">
    <mpath xlink:href="#path12"></mpath>
  </animateMotion>
</circle><path id="path13" d="M 1246.8050380775082 528.9196866191284
c 0 29.70065203850984 -7.267180817933258 8.531038351486869 -15.798219169420127 8.531038351486869
S 1215.2085997386678 558.6203386576382 1215.2085997386678 528.9196866191284
s 7.267180817933258 -8.531038351486869 15.798219169420127 -8.531038351486869
S 1246.8050380775082 499.21903458061854 1246.8050380775082 528.9196866191284
z" fill="none" stroke="none"></path>
<circle cx="0" cy="0" r="8.228615613154961" fill="#9df871" opacity="0.9">
  <animateMotion begin="-0.24298078908306875s" dur="10.16s" repeatCount="indefinite">
    <mpath xlink:href="#path13"></mpath>
  </animateMotion>
</circle><path id="path14" d="M 218.8409304976347 349.8276415870908
c 0 21.45464116569429 -5.249539859691156 6.162503313550488 -11.412043173241644 6.162503313550488
S 196.01684415115142 371.2822827527851 196.01684415115142 349.8276415870908
s 5.249539859691156 -6.162503313550488 11.412043173241644 -6.162503313550488
S 218.8409304976347 328.3730004213965 218.8409304976347 349.8276415870908
z" fill="none" stroke="none"></path>
<circle cx="0" cy="0" r="7.0003963010313335" fill="#ff708e" opacity="0.9">
  <animateMotion begin="-3.6858530166111785s" dur="10.16s" repeatCount="indefinite">
    <mpath xlink:href="#path14"></mpath>
  </animateMotion>
</circle><path id="path15" d="M 1276.319813948415 210.1062139630556
c 0 28.34305767009742 -6.935003472470644 8.141091032900324 -15.076094505370968 8.141091032900324
S 1246.167624937673 238.44927163315302 1246.167624937673 210.1062139630556
s 6.935003472470644 -8.141091032900324 15.076094505370968 -8.141091032900324
S 1276.319813948415 181.7631562929582 1276.319813948415 210.1062139630556
z" fill="none" stroke="none"></path>
<circle cx="0" cy="0" r="7.8801503066796315" fill="#51cacc" opacity="0.9">
  <animateMotion begin="-2.358120994024055s" dur="10.16s" repeatCount="indefinite">
    <mpath xlink:href="#path15"></mpath>
  </animateMotion>
</circle><path id="path16" d="M 1015.7900444271673 360.1921763969072
c 0 35.939637063158145 -8.793740983538694 10.323087241545425 -19.11682822508412 10.323087241545425
S 977.5563879769992 396.13181346006536 977.5563879769992 360.1921763969072
s 8.793740983538694 -10.323087241545425 19.11682822508412 -10.323087241545425
S 1015.7900444271673 324.25253933374904 1015.7900444271673 360.1921763969072
z" fill="none" stroke="none"></path>
<circle cx="0" cy="0" r="7.212810726515611" fill="#e0ff77" opacity="0.9">
  <animateMotion begin="-2.546400335437198s" dur="10.16s" repeatCount="indefinite">
    <mpath xlink:href="#path16"></mpath>
  </animateMotion>
</circle><path id="path17" d="M 590.4367544560067 338.5846182577972
c 0 32.86119843610126 -8.04050600032265 9.438854869943981 -17.47936087026663 9.438854869943981
S 555.4780327154734 371.44581669389845 555.4780327154734 338.5846182577972
s 8.04050600032265 -9.438854869943981 17.47936087026663 -9.438854869943981
S 590.4367544560067 305.723419821696 590.4367544560067 338.5846182577972
z" fill="none" stroke="none"></path>
<circle cx="0" cy="0" r="10.610625251987486" fill="#e0ff77" opacity="0.9">
  <animateMotion begin="-4.08428141464736s" dur="10.16s" repeatCount="indefinite">
    <mpath xlink:href="#path17"></mpath>
  </animateMotion>
</circle><path id="path18" d="M 1335.0173640076084 350.06111371036934
c 0 30.521753022695336 -7.468088505553113 8.766886506518873 -16.234975012071985 8.766886506518873
S 1302.5474139834644 380.5828667330647 1302.5474139834644 350.06111371036934
s 7.468088505553113 -8.766886506518873 16.234975012071985 -8.766886506518873
S 1335.0173640076084 319.539360687674 1335.0173640076084 350.06111371036934
z" fill="none" stroke="none"></path>
<circle cx="0" cy="0" r="9.919186925991845" fill="#9df871" opacity="0.9">
  <animateMotion begin="-5.23236592754335s" dur="10.16s" repeatCount="indefinite">
    <mpath xlink:href="#path18"></mpath>
  </animateMotion>
</circle><path id="path19" d="M 1326.5161287751494 116.46980990111518
c 0 34.94634713178771 -8.550701957777843 10.037780559130512 -18.588482516908357 10.037780559130512
S 1289.3391637413324 151.4161570329029 1289.3391637413324 116.46980990111518
s 8.550701957777843 -10.037780559130512 18.588482516908357 -10.037780559130512
S 1326.5161287751494 81.52346276932747 1326.5161287751494 116.46980990111518
z" fill="none" stroke="none"></path>
<circle cx="0" cy="0" r="11.555230936395482" fill="#51cacc" opacity="0.9">
  <animateMotion begin="-6.180360736655334s" dur="10.16s" repeatCount="indefinite">
    <mpath xlink:href="#path19"></mpath>
  </animateMotion>
</circle><path id="path20" d="M 753.6180612681693 514.6095748791927
c 0 26.17677927172448 -6.4049566303155645 7.518862131240011 -13.923818761555575 7.518862131240011
S 725.7704237450581 540.7863541509172 725.7704237450581 514.6095748791927
s 6.4049566303155645 -7.518862131240011 13.923818761555575 -7.518862131240011
S 753.6180612681693 488.4327956074682 753.6180612681693 514.6095748791927
z" fill="none" stroke="none"></path>
<circle cx="0" cy="0" r="8.779801185955675" fill="#de9dd6" opacity="0.9">
  <animateMotion begin="-1.0877513705436357s" dur="10.16s" repeatCount="indefinite">
    <mpath xlink:href="#path20"></mpath>
  </animateMotion>
</circle><path id="path21" d="M 900.0771758561971 376.16946221574176
c 0 33.19291704892288 -8.121671192821555 9.53413574809487 -17.655806940916424 9.53413574809487
S 864.7655619743641 409.36237926466464 864.7655619743641 376.16946221574176
s 8.121671192821555 -9.53413574809487 17.655806940916424 -9.53413574809487
S 900.0771758561971 342.9765451668189 900.0771758561971 376.16946221574176
z" fill="none" stroke="none"></path>
<circle cx="0" cy="0" r="6.8408010455911885" fill="#9df871" opacity="0.9">
  <animateMotion begin="-8.816826067348288s" dur="10.16s" repeatCount="indefinite">
    <mpath xlink:href="#path21"></mpath>
  </animateMotion>
</circle><path id="path22" d="M 26.595741105866196 576.413012161554
c 0 27.454298594018514 -6.7175411453449545 7.885809170622339 -14.603350315967294 7.885809170622339
S -2.61095952606839 603.8673107555725 -2.61095952606839 576.413012161554
s 6.7175411453449545 -7.885809170622339 14.603350315967294 -7.885809170622339
S 26.595741105866196 548.9587135675355 26.595741105866196 576.413012161554
z" fill="none" stroke="none"></path>
<circle cx="0" cy="0" r="11.435661742974983" fill="#9df871" opacity="0.9">
  <animateMotion begin="-0.8334774293904907s" dur="10.16s" repeatCount="indefinite">
    <mpath xlink:href="#path22"></mpath>
  </animateMotion>
</circle><path id="path23" d="M 1189.0991714695963 462.24247331582967
c 0 22.861030563575483 -5.593656414491873 6.566466225707852 -12.160122640199724 6.566466225707852
S 1164.778926189197 485.10350387940514 1164.778926189197 462.24247331582967
s 5.593656414491873 -6.566466225707852 12.160122640199724 -6.566466225707852
S 1189.0991714695963 439.3814427522542 1189.0991714695963 462.24247331582967
z" fill="none" stroke="none"></path>
<circle cx="0" cy="0" r="6.752996989037354" fill="#e0ff77" opacity="0.9">
  <animateMotion begin="-4.472099969741539s" dur="10.16s" repeatCount="indefinite">
    <mpath xlink:href="#path23"></mpath>
  </animateMotion>
</circle><path id="path24" d="M 943.1668679896795 90.27448235476061
c 0 26.29033493064205 -6.432741525582628 7.5514791822056955 -13.984220707788324 7.5514791822056955
S 915.198426574103 116.56481728540265 915.198426574103 90.27448235476061
s 6.432741525582628 -7.5514791822056955 13.984220707788324 -7.5514791822056955
S 943.1668679896795 63.98414742411856 943.1668679896795 90.27448235476061
z" fill="none" stroke="none"></path>
<circle cx="0" cy="0" r="10.054956282591853" fill="#ff708e" opacity="0.9">
  <animateMotion begin="-1.067156978012275s" dur="10.16s" repeatCount="indefinite">
    <mpath xlink:href="#path24"></mpath>
  </animateMotion>
</circle><path id="path25" d="M 37.31731938266091 55.59082847559295
c 0 21.903322442681304 -5.359323576400744 6.291379850557396 -11.65070342695814 6.291379850557396
S 14.015912528744634 77.49415091827426 14.015912528744634 55.59082847559295
s 5.359323576400744 -6.291379850557396 11.65070342695814 -6.291379850557396
S 37.31731938266091 33.68750603291164 37.31731938266091 55.59082847559295
z" fill="none" stroke="none"></path>
<circle cx="0" cy="0" r="8.593827425244918" fill="#de9dd6" opacity="0.9">
  <animateMotion begin="-8.421497555230788s" dur="10.16s" repeatCount="indefinite">
    <mpath xlink:href="#path25"></mpath>
  </animateMotion>
</circle><path id="path26" d="M 594.5037091107899 249.19351127507963
c 0 37.0651069339177 -9.069121909362838 10.646360502295508 -19.715482411658346 10.646360502295508
S 555.0727442874731 286.25861820899735 555.0727442874731 249.19351127507963
s 9.069121909362838 -10.646360502295508 19.715482411658346 -10.646360502295508
S 594.5037091107899 212.12840434116194 594.5037091107899 249.19351127507963
z" fill="none" stroke="none"></path>
<circle cx="0" cy="0" r="8.179032053241697" fill="#9df871" opacity="0.9">
  <animateMotion begin="-9.797332890326892s" dur="10.16s" repeatCount="indefinite">
    <mpath xlink:href="#path26"></mpath>
  </animateMotion>
</circle><path id="path27" d="M 974.0745739301665 580.5805409294518
c 0 25.441185853112113 -6.224971006612538 7.307574659936458 -13.532545666548996 7.307574659936458
S 947.0094825970684 606.0217267825639 947.0094825970684 580.5805409294518
s 6.224971006612538 -7.307574659936458 13.532545666548996 -7.307574659936458
S 974.0745739301665 555.1393550763397 974.0745739301665 580.5805409294518
z" fill="none" stroke="none"></path>
<circle cx="0" cy="0" r="8.519741855147496" fill="#9df871" opacity="0.9">
  <animateMotion begin="-0.6569721066635661s" dur="10.16s" repeatCount="indefinite">
    <mpath xlink:href="#path27"></mpath>
  </animateMotion>
</circle><path id="path28" d="M 1256.9570818556085 381.2617677823273
c 0 36.46029185465313 -8.921135241032147 10.472637022081217 -19.393772263113366 10.472637022081217
S 1218.169537329382 417.7220596369804 1218.169537329382 381.2617677823273
s 8.921135241032147 -10.472637022081217 19.393772263113366 -10.472637022081217
S 1256.9570818556085 344.8014759276742 1256.9570818556085 381.2617677823273
z" fill="none" stroke="none"></path>
<circle cx="0" cy="0" r="9.19049791270658" fill="#e0ff77" opacity="0.9">
  <animateMotion begin="-1.400211732008593s" dur="10.16s" repeatCount="indefinite">
    <mpath xlink:href="#path28"></mpath>
  </animateMotion>
</circle><path id="path29" d="M 910.1327205476001 643.4518057372854
c 0 34.87551321326045 -8.533370254308407 10.017434646362045 -18.55080490067045 10.017434646362045
S 873.0311107462593 678.3273189505459 873.0311107462593 643.4518057372854
s 8.533370254308407 -10.017434646362045 18.55080490067045 -10.017434646362045
S 910.1327205476001 608.576292524025 910.1327205476001 643.4518057372854
z" fill="none" stroke="none"></path>
<circle cx="0" cy="0" r="7.511909492964172" fill="#9df871" opacity="0.9">
  <animateMotion begin="-0.7979870365878495s" dur="10.16s" repeatCount="indefinite">
    <mpath xlink:href="#path29"></mpath>
  </animateMotion>
</circle><path id="path30" d="M 829.1457821830604 46.88929622467256
c 0 35.47889115646612 -8.681005282965113 10.190745332176439 -18.871750615141554 10.190745332176439
S 791.4022809527773 82.36818738113868 791.4022809527773 46.88929622467256
s 8.681005282965113 -10.190745332176439 18.871750615141554 -10.190745332176439
S 829.1457821830604 11.410405068206444 829.1457821830604 46.88929622467256
z" fill="none" stroke="none"></path>
<circle cx="0" cy="0" r="11.436804626953004" fill="#51cacc" opacity="0.9">
  <animateMotion begin="-2.0075466043883354s" dur="10.16s" repeatCount="indefinite">
    <mpath xlink:href="#path30"></mpath>
  </animateMotion>
</circle><path id="path31" d="M 876.0115453491162 97.23022034611363
c 0 37.050734685654845 -9.065605295426185 10.642232303326393 -19.707837598752576 10.642232303326393
S 836.595870151611 134.28095503176849 836.595870151611 97.23022034611363
s 9.065605295426185 -10.642232303326393 19.707837598752576 -10.642232303326393
S 876.0115453491162 60.17948566045878 876.0115453491162 97.23022034611363
z" fill="none" stroke="none"></path>
<circle cx="0" cy="0" r="9.598993819173206" fill="#de9dd6" opacity="0.9">
  <animateMotion begin="-2.2869797522464603s" dur="10.16s" repeatCount="indefinite">
    <mpath xlink:href="#path31"></mpath>
  </animateMotion>
</circle><path id="path32" d="M 841.370428141145 365.96180205009966
c 0 28.33834384673294 -6.933850090158058 8.139737062359462 -15.07358715251752 8.139737062359462
S 811.2232538361098 394.3001458968326 811.2232538361098 365.96180205009966
s 6.933850090158058 -8.139737062359462 15.07358715251752 -8.139737062359462
S 841.370428141145 337.62345820336674 841.370428141145 365.96180205009966
z" fill="none" stroke="none"></path>
<circle cx="0" cy="0" r="8.685682109524258" fill="#e0ff77" opacity="0.9">
  <animateMotion begin="-5.918212524484155s" dur="10.16s" repeatCount="indefinite">
    <mpath xlink:href="#path32"></mpath>
  </animateMotion>
</circle><path id="path33" d="M 1083.7602302602422 574.2092917130069
c 0 28.73158891641071 -7.030069628483471 8.25269043343712 -15.282760061920591 8.25269043343712
S 1053.1947101364012 602.9408806294176 1053.1947101364012 574.2092917130069
s 7.030069628483471 -8.25269043343712 15.282760061920591 -8.25269043343712
S 1083.7602302602422 545.4777027965962 1083.7602302602422 574.2092917130069
z" fill="none" stroke="none"></path>
<circle cx="0" cy="0" r="11.942957424939442" fill="#e0ff77" opacity="0.9">
  <animateMotion begin="-7.387318673809078s" dur="10.16s" repeatCount="indefinite">
    <mpath xlink:href="#path33"></mpath>
  </animateMotion>
</circle><path id="path34" d="M 1322.4115824504097 200.22835224721783
c 0 23.760233709475244 -5.8136742055098996 6.824747980381187 -12.638422185891088 6.824747980381187
S 1297.1347380786274 223.98858595669307 1297.1347380786274 200.22835224721783
s 5.8136742055098996 -6.824747980381187 12.638422185891088 -6.824747980381187
S 1322.4115824504097 176.46811853774258 1322.4115824504097 200.22835224721783
z" fill="none" stroke="none"></path>
<circle cx="0" cy="0" r="8.144581048196766" fill="#51cacc" opacity="0.9">
  <animateMotion begin="-6.150347853224776s" dur="10.16s" repeatCount="indefinite">
    <mpath xlink:href="#path34"></mpath>
  </animateMotion>
</circle><path id="path35" d="M 909.3054529428696 100.33432259561629
c 0 26.403909675681774 -6.460531090858305 7.584101715355403 -14.04463280621371 7.584101715355403
S 881.2161873304422 126.73823227129806 881.2161873304422 100.33432259561629
s 6.460531090858305 -7.584101715355403 14.04463280621371 -7.584101715355403
S 909.3054529428696 73.93041291993451 909.3054529428696 100.33432259561629
z" fill="none" stroke="none"></path>
<circle cx="0" cy="0" r="8.538410222735408" fill="#51cacc" opacity="0.9">
  <animateMotion begin="-5.187482606896011s" dur="10.16s" repeatCount="indefinite">
    <mpath xlink:href="#path35"></mpath>
  </animateMotion>
</circle><path id="path36" d="M 1191.5035204356775 223.5712365695857
c 0 28.135793078352677 -6.884289795767143 8.081557586335343 -14.965847382102487 8.081557586335343
S 1161.5718256714724 251.70702964793838 1161.5718256714724 223.5712365695857
s 6.884289795767143 -8.081557586335343 14.965847382102487 -8.081557586335343
S 1191.5035204356775 195.435443491233 1191.5035204356775 223.5712365695857
z" fill="none" stroke="none"></path>
<circle cx="0" cy="0" r="9.463563492458103" fill="#ff708e" opacity="0.9">
  <animateMotion begin="-0.16157631598969197s" dur="10.16s" repeatCount="indefinite">
    <mpath xlink:href="#path36"></mpath>
  </animateMotion>
</circle><path id="path37" d="M 853.0164178153713 391.4199769280644
c 0 31.405538179219562 -7.684333809809041 9.020739689775832 -16.705073499584874 9.020739689775832
S 819.6062708162016 422.82551510728393 819.6062708162016 391.4199769280644
s 7.684333809809041 -9.020739689775832 16.705073499584874 -9.020739689775832
S 853.0164178153713 360.01443874884484 853.0164178153713 391.4199769280644
z" fill="none" stroke="none"></path>
<circle cx="0" cy="0" r="8.154528585774708" fill="#e0ff77" opacity="0.9">
  <animateMotion begin="-5.839663643031872s" dur="10.16s" repeatCount="indefinite">
    <mpath xlink:href="#path37"></mpath>
  </animateMotion>
</circle><path id="path38" d="M 831.1444433749389 646.0094359185074
c 0 22.72898847699955 -5.56134824437223 6.528539243393488 -12.089887487765719 6.528539243393488
S 806.9646683994074 668.738424395507 806.9646683994074 646.0094359185074
s 5.56134824437223 -6.528539243393488 12.089887487765719 -6.528539243393488
S 831.1444433749389 623.2804474415078 831.1444433749389 646.0094359185074
z" fill="none" stroke="none"></path>
<circle cx="0" cy="0" r="8.994708730258617" fill="#ff708e" opacity="0.9">
  <animateMotion begin="-3.757918913445619s" dur="10.16s" repeatCount="indefinite">
    <mpath xlink:href="#path38"></mpath>
  </animateMotion>
</circle></g>
</svg>